<svg width="24" height="24" viewBox="0 0 24 24" fill="none" xmlns="http://www.w3.org/2000/svg">
<path d="M21.5826 6.46175C21.5826 5.85673 21.5539 5.25191 21.5539 4.7046C21.5539 4.27259 21.2082 3.89804 20.7473 3.89804C17.3483 3.89804 14.7268 2.91869 12.5663 0.815714C12.2494 0.527574 11.7597 0.527574 11.4429 0.815714C9.28241 2.91849 6.68996 3.89804 3.26191 3.89804C2.8299 3.89804 2.45534 4.24364 2.45534 4.7046C2.45534 5.28066 2.45534 5.85673 2.42661 6.46175C2.31107 12.1941 2.167 20.0293 11.7305 23.3419C11.8169 23.3707 11.9033 23.3996 11.9897 23.3996C12.0761 23.3996 12.1625 23.3709 12.2489 23.3419C21.8126 20.0292 21.6685 12.1941 21.5826 6.46175H21.5826ZM12.0189 21.7576C3.83797 18.7906 3.95319 12.2517 4.06842 6.51936C4.06842 6.17375 4.06842 5.82797 4.09715 5.51106C7.29464 5.36699 9.85839 4.41639 12.0477 2.51536C14.2369 4.41659 16.8006 5.39594 19.9982 5.51106C19.9982 5.82793 19.9982 6.17354 20.0269 6.51936C20.0848 12.2517 20.1999 18.7618 12.0188 21.7576H12.0189Z" fill="#0658BE"/>
</svg>
