<svg width="24" height="24" viewBox="0 0 24 24" fill="none" xmlns="http://www.w3.org/2000/svg">
<path d="M22.243 7.51282C22.2405 7.39417 22.2095 7.27781 22.1522 7.17402C22.1522 7.16272 22.1522 7.14911 22.1422 7.13781L18.9458 1.61509C18.3644 0.616452 17.3002 0.00187502 16.1486 0H7.26436C6.11282 0.00188337 5.04857 0.616506 4.46721 1.61509L1.27074 7.13621C1.26449 7.14751 1.27074 7.16111 1.26074 7.17241C1.20346 7.27621 1.17242 7.39256 1.16992 7.51121V20.7499C1.16992 21.6119 1.51071 22.4386 2.11754 23.048C2.72413 23.6576 3.54697 24 4.40499 24H19.008C19.866 24 20.6889 23.6576 21.2955 23.048C21.9023 22.4386 22.2431 21.6118 22.2431 20.7499L22.243 7.51282ZM12.4528 1.50044H16.1484C16.7695 1.50149 17.3432 1.83485 17.654 2.37538L20.1972 6.77036L12.4526 6.77057L12.4528 1.50044ZM5.75705 2.37538C6.06785 1.83484 6.64153 1.50151 7.26268 1.50044H10.9595V6.76554H3.21379L5.75705 2.37538ZM20.7494 20.7505C20.7494 21.2147 20.5658 21.6598 20.2392 21.9882C19.9126 22.3163 19.4693 22.5007 19.0075 22.5007H4.40445C3.94263 22.5007 3.49933 22.3163 3.17271 21.9882C2.84608 21.6598 2.66256 21.2147 2.66256 20.7505V8.26454H20.7494L20.7494 20.7505ZM8.4138 15.3832C8.12259 15.0904 8.12259 14.616 8.4138 14.323L11.1612 11.563C11.3012 11.4222 11.4912 11.3431 11.6893 11.3431C11.8876 11.3431 12.0775 11.4222 12.2175 11.563L14.9984 14.3567V14.3569C15.2859 14.6505 15.2836 15.1222 14.9936 15.4133C14.7037 15.7042 14.2341 15.7058 13.9421 15.4168L12.4352 13.903V18.6707C12.4352 19.0848 12.101 19.4207 11.6886 19.4207C11.2763 19.4207 10.942 19.0848 10.942 18.6707V13.9042L9.46634 15.3831C9.17513 15.6738 8.70478 15.6738 8.41378 15.3831L8.4138 15.3832Z" fill="#0658BE"/>
</svg>
