<svg width="24" height="24" viewBox="0 0 24 24" fill="none" xmlns="http://www.w3.org/2000/svg">
<path d="M18.639 23.395H5.95916C3.44952 23.5114 1.32053 21.5715 1.20411 19.0618C1.19759 18.9213 1.19759 18.7805 1.20411 18.64V8.33744C1.20411 7.89979 1.55897 7.54492 1.99663 7.54492H22.6017C23.0394 7.54492 23.3942 7.89978 23.3942 8.33744V18.64C23.5108 21.1496 21.5707 23.2786 19.0611 23.395C18.9204 23.4016 18.7797 23.4016 18.6391 23.395L18.639 23.395ZM2.78899 9.12984V18.6399C2.6757 20.2773 3.91113 21.6966 5.5485 21.8099C5.6851 21.8194 5.82235 21.8194 5.95895 21.8099H18.6388C20.2762 21.9232 21.6955 20.6878 21.8088 19.0504C21.8182 18.9138 21.8182 18.7765 21.8088 18.6399V9.12985L2.78899 9.12984Z" fill="#0658BE"/>
<path d="M21.8103 9.12943H5.96023C5.59413 9.14296 5.26648 8.90383 5.16771 8.55094C5.07301 8.21042 5.21531 7.84838 5.51638 7.66335L15.8189 1.32343C16.1466 1.12309 16.5707 1.1865 16.8255 1.47404L22.373 7.81397C22.6621 8.14243 22.6303 8.64317 22.3019 8.93252C22.1655 9.0525 21.9919 9.1221 21.8103 9.12944L21.8103 9.12943ZM8.75776 7.54455H20.0668L16.1045 3.01943L8.75776 7.54455Z" fill="#0658BE"/>
<path d="M3.58222 9.12972C3.37162 9.13086 3.16917 9.04822 3.01954 8.89988C2.70886 8.59164 2.70674 8.08992 3.01498 7.77907C3.01645 7.77761 3.01808 7.77598 3.01954 7.77451L9.35947 1.43458C9.66771 1.1239 10.1694 1.12178 10.4803 1.43002C10.4817 1.43149 10.4834 1.43312 10.4848 1.43458L12.8625 3.81219C13.1731 4.12288 13.1731 4.62675 12.8625 4.93759C12.5518 5.24827 12.0479 5.24827 11.7371 4.93759L9.92216 3.11485L4.14475 8.9002C3.99527 9.04853 3.79282 9.13118 3.58224 9.12987L3.58222 9.12972Z" fill="#0658BE"/>
<path d="M19.4307 17.0549C18.5554 17.0549 17.8457 16.3453 17.8457 15.4698C17.8457 14.5945 18.5553 13.8848 19.4307 13.8848C20.3061 13.8848 21.0158 14.5943 21.0158 15.4698C21.0158 16.3452 20.3061 17.0549 19.4307 17.0549Z" fill="#0658BE"/>
</svg>
