<svg width="22" height="22" viewBox="0 0 22 22" fill="none" xmlns="http://www.w3.org/2000/svg">
<path d="M20.9266 21.7833H1.08831C0.812775 21.7833 0.583218 21.6455 0.399478 21.4618C0.215738 21.2781 0.169921 21.0025 0.215738 20.727L2.46596 7.5932C2.55776 7.1799 2.92524 6.8584 3.33853 6.8584H18.6766C19.1359 6.8584 19.5032 7.1799 19.5491 7.5932L21.7532 20.6353C21.7992 20.7271 21.7992 20.819 21.7992 20.9108C21.7992 21.3701 21.3859 21.7834 20.9266 21.7834L20.9266 21.7833ZM2.19043 19.9924H19.8705L17.8958 8.64951H4.11923L2.19043 19.9924Z" fill="#0658BE"/>
<path d="M11.0069 8.19061C8.80267 8.19061 7.01172 6.39965 7.01172 4.1954C7.01172 1.99115 8.80267 0.200195 11.0069 0.200195C13.2112 0.200195 15.0021 1.99115 15.0021 4.1954C15.0021 6.39965 13.2112 8.19061 11.0069 8.19061ZM11.0069 1.99115C9.81301 1.99115 8.80267 2.95551 8.80267 4.1954C8.80267 5.38932 9.76703 6.39965 11.0069 6.39965C12.2468 6.39965 13.2112 5.43529 13.2112 4.1954C13.2112 2.95551 12.2008 1.99115 11.0069 1.99115Z" fill="#0658BE"/>
</svg>
