<svg width="40" height="40" viewBox="0 0 40 40" fill="none" xmlns="http://www.w3.org/2000/svg">
<path d="M31.0663 38.991H9.93323C5.7505 39.185 2.20219 35.9518 2.00815 31.7691C1.99728 31.5349 1.99728 31.3001 2.00815 31.066V13.8951C2.00815 13.1657 2.59959 12.5742 3.32902 12.5742H37.6708C38.4002 12.5742 38.9917 13.1657 38.9917 13.8951V31.066C39.1859 35.2487 35.9525 38.797 31.7697 38.9911C31.5353 39.0019 31.3008 39.0019 31.0664 38.9911L31.0663 38.991ZM4.64961 15.2158V31.0659C4.4608 33.7949 6.51985 36.1604 9.24881 36.3492C9.47647 36.365 9.70522 36.365 9.93288 36.3492H31.066C33.7949 36.538 36.1604 34.479 36.3492 31.75C36.365 31.5223 36.365 31.2936 36.3492 31.0659V15.2158L4.64961 15.2158Z" fill="#0658BE"/>
<path d="M36.3485 15.2157H9.93177C9.32159 15.2383 8.77552 14.8397 8.6109 14.2516C8.45306 13.684 8.69023 13.0806 9.19201 12.7723L26.3629 2.20571C26.909 1.87182 27.6159 1.97751 28.0405 2.45674L37.2863 13.0233C37.7683 13.5707 37.7153 14.4053 37.1679 14.8875C36.9405 15.0875 36.6511 15.2035 36.3485 15.2157L36.3485 15.2157ZM14.5943 12.5743H33.4427L26.8389 5.03238L14.5943 12.5743Z" fill="#0658BE"/>
<path d="M5.96907 15.2159C5.61806 15.2178 5.28065 15.08 5.03127 14.8328C4.51346 14.3191 4.50993 13.4829 5.02366 12.9648C5.02611 12.9624 5.02883 12.9596 5.03127 12.9572L15.5978 2.39065C16.1116 1.87283 16.9478 1.8693 17.4658 2.38304C17.4683 2.38548 17.471 2.3882 17.4734 2.39065L21.4361 6.35333C21.9539 6.87114 21.9539 7.71092 21.4361 8.22899C20.9183 8.7468 20.0785 8.7468 19.5605 8.22899L16.5356 5.1911L6.90661 14.8333C6.65749 15.0806 6.32006 15.2183 5.96909 15.2161L5.96907 15.2159Z" fill="#0658BE"/>
<path d="M32.3878 28.4241C30.9289 28.4241 29.7461 27.2415 29.7461 25.7824C29.7461 24.3234 30.9287 23.1406 32.3878 23.1406C33.8468 23.1406 35.0296 24.3232 35.0296 25.7824C35.0296 27.2413 33.8467 28.4241 32.3878 28.4241Z" fill="#0658BE"/>
</svg>
