<svg width="25" height="24" viewBox="0 0 25 24" fill="none" xmlns="http://www.w3.org/2000/svg">
<path d="M3.5 8L11.39 13.26C11.7187 13.4793 12.1049 13.5963 12.5 13.5963C12.8951 13.5963 13.2813 13.4793 13.61 13.26L21.5 8M5.5 19H19.5C20.0304 19 20.5391 18.7893 20.9142 18.4142C21.2893 18.0391 21.5 17.5304 21.5 17V7C21.5 6.46957 21.2893 5.96086 20.9142 5.58579C20.5391 5.21071 20.0304 5 19.5 5H5.5C4.96957 5 4.46086 5.21071 4.08579 5.58579C3.71071 5.96086 3.5 6.46957 3.5 7V17C3.5 17.5304 3.71071 18.0391 4.08579 18.4142C4.46086 18.7893 4.96957 19 5.5 19Z" stroke="white" stroke-width="2" stroke-linecap="round" stroke-linejoin="round"/>
</svg>
