<svg xmlns="http://www.w3.org/2000/svg">

<!-- icon-weight -->
<symbol viewBox="0 0 40 40" id="icon-weight">
<path d="M36.5456 37.9725H3.48181C3.02259 37.9725 2.64 37.7429 2.33377 37.4367C2.02753 37.1304 1.95117 36.6712 2.02753 36.212L5.77791 14.3223C5.93089 13.6335 6.54336 13.0977 7.23219 13.0977H32.7956C33.5611 13.0977 34.1733 13.6335 34.2499 14.3223L37.9234 36.0591C38 36.2121 38 36.3654 38 36.5184C38 37.2838 37.3112 37.9726 36.5457 37.9726L36.5456 37.9725ZM5.31869 34.9876H34.7855L31.4943 16.0828H8.53335L5.31869 34.9876Z"/>
<path d="M20.0141 15.3174C16.3404 15.3174 13.3555 12.3324 13.3555 8.65868C13.3555 4.98492 16.3404 2 20.0141 2C23.6879 2 26.6728 4.98492 26.6728 8.65868C26.6728 12.3324 23.6879 15.3174 20.0141 15.3174ZM20.0141 4.98492C18.0243 4.98492 16.3404 6.59219 16.3404 8.65868C16.3404 10.6485 17.9477 12.3324 20.0141 12.3324C22.0806 12.3324 23.6879 10.7252 23.6879 8.65868C23.6879 6.59219 22.004 4.98492 20.0141 4.98492Z"/>
</symbol>

<!-- icon-insurance -->
<symbol viewBox="0 0 40 40" id="icon-insurance">
  <path d="M35.9703 10.7702C35.9703 9.76186 35.9224 8.75383 35.9224 7.84165C35.9224 7.12164 35.3464 6.49738 34.5781 6.49738C28.9131 6.49738 24.544 4.86514 20.9432 1.36018C20.4151 0.879942 19.5989 0.879942 19.0708 1.36018C15.47 4.86479 11.1493 6.49738 5.43587 6.49738C4.71585 6.49738 4.09158 7.07339 4.09158 7.84165C4.09158 8.80176 4.09158 9.76186 4.04369 10.7702C3.85113 20.3242 3.61101 33.3828 19.5502 38.9039C19.6942 38.9518 19.8382 39 19.9822 39C20.1262 39 20.2702 38.9521 20.4142 38.9039C36.3536 33.3826 36.1136 20.3242 35.9704 10.7702H35.9703ZM20.0309 36.2634C6.39596 31.3184 6.588 20.4202 6.78004 10.8663C6.78004 10.2902 6.78004 9.71394 6.82793 9.18575C12.1571 8.94563 16.43 7.36129 20.0788 4.19292C23.7275 7.36164 28.0003 8.99388 33.3296 9.18575C33.3296 9.71387 33.3296 10.2899 33.3775 10.8663C33.474 20.4202 33.6659 31.2704 20.0307 36.2634H20.0309Z" />
</symbol>

  <!-- icon-envelope -->
<symbol viewBox="0 0 40 41" id="icon-envelope">
<path d="M37.9999 12.8344C37.9957 12.6317 37.9426 12.4329 37.8448 12.2556C37.8448 12.2363 37.8448 12.2131 37.8277 12.1938L32.3671 2.75911C31.3739 1.05311 29.5558 0.00320315 27.5886 0H12.4113C10.4441 0.00321743 8.62603 1.0532 7.63286 2.75911L2.17223 12.191C2.16156 12.2103 2.17223 12.2336 2.15515 12.2529C2.05729 12.4302 2.00427 12.629 2 12.8316V35.4477C2 36.9203 2.58218 38.3327 3.61885 39.3737C4.65511 40.4151 6.06078 41 7.52658 41H32.4734C33.9392 41 35.3449 40.4151 36.3811 39.3737C37.4178 38.3327 38 36.9202 38 35.4477L37.9999 12.8344ZM21.2749 2.56325H27.5882C28.6493 2.56504 29.6294 3.13453 30.1603 4.05794L34.505 11.566L21.2745 11.5664L21.2749 2.56325ZM9.83635 4.05794C10.3673 3.13451 11.3473 2.56508 12.4085 2.56325H18.7239V11.5578H5.49161L9.83635 4.05794ZM35.4482 35.4488C35.4482 36.2418 35.1347 37.0022 34.5767 37.5631C34.0187 38.1237 33.2614 38.4386 32.4725 38.4386H7.52565C6.73671 38.4386 5.97941 38.1237 5.42142 37.5631C4.86344 37.0022 4.54993 36.2418 4.54993 35.4488V14.1186H35.4483L35.4482 35.4488ZM14.375 26.2796C13.8775 25.7795 13.8775 24.969 14.375 24.4685L19.0684 19.7535C19.3076 19.5129 19.6321 19.3778 19.9705 19.3778C20.3093 19.3778 20.6338 19.5129 20.873 19.7535L25.6237 24.526V24.5264C26.1148 25.0279 26.1108 25.8337 25.6155 26.331C25.1201 26.8279 24.318 26.8308 23.8191 26.3371L21.2448 23.751V31.8958C21.2448 32.6032 20.674 33.177 19.9694 33.177C19.2651 33.177 18.694 32.6032 18.694 31.8958V23.7531L16.1731 26.2794C15.6756 26.776 14.8721 26.776 14.3749 26.2794L14.375 26.2796Z"/>
</symbol>

<!-- icon-wallet -->
<symbol  viewBox="0 0 40 40" id="icon-wallet">
<path d="M31.0663 38.991H9.93323C5.7505 39.185 2.20219 35.9518 2.00815 31.7691C1.99728 31.5349 1.99728 31.3001 2.00815 31.066V13.8951C2.00815 13.1657 2.59959 12.5742 3.32902 12.5742H37.6708C38.4002 12.5742 38.9917 13.1657 38.9917 13.8951V31.066C39.1859 35.2487 35.9525 38.797 31.7697 38.9911C31.5353 39.0019 31.3008 39.0019 31.0664 38.9911L31.0663 38.991ZM4.64961 15.2158V31.0659C4.4608 33.7949 6.51985 36.1604 9.24881 36.3492C9.47647 36.365 9.70522 36.365 9.93288 36.3492H31.066C33.7949 36.538 36.1604 34.479 36.3492 31.75C36.365 31.5223 36.365 31.2936 36.3492 31.0659V15.2158L4.64961 15.2158Z"/>
<path d="M36.3485 15.2157H9.93177C9.32159 15.2383 8.77552 14.8397 8.6109 14.2516C8.45306 13.684 8.69023 13.0806 9.19201 12.7723L26.3629 2.20571C26.909 1.87182 27.6159 1.97751 28.0405 2.45674L37.2863 13.0233C37.7683 13.5707 37.7153 14.4053 37.1679 14.8875C36.9405 15.0875 36.6511 15.2035 36.3485 15.2157L36.3485 15.2157ZM14.5943 12.5743H33.4427L26.8389 5.03238L14.5943 12.5743Z"/>
<path d="M5.96907 15.2159C5.61806 15.2178 5.28065 15.08 5.03127 14.8328C4.51346 14.3191 4.50993 13.4829 5.02366 12.9648C5.02611 12.9624 5.02883 12.9596 5.03127 12.9572L15.5978 2.39065C16.1116 1.87283 16.9478 1.8693 17.4658 2.38304C17.4683 2.38548 17.471 2.3882 17.4734 2.39065L21.4361 6.35333C21.9539 6.87114 21.9539 7.71092 21.4361 8.22899C20.9183 8.7468 20.0785 8.7468 19.5605 8.22899L16.5356 5.1911L6.90661 14.8333C6.65749 15.0806 6.32006 15.2183 5.96909 15.2161L5.96907 15.2159Z"/>
<path d="M32.3878 28.4241C30.9289 28.4241 29.7461 27.2415 29.7461 25.7824C29.7461 24.3234 30.9287 23.1406 32.3878 23.1406C33.8468 23.1406 35.0296 24.3232 35.0296 25.7824C35.0296 27.2413 33.8467 28.4241 32.3878 28.4241Z"/>
</symbol>



</svg>
