<svg width="21" height="21" viewBox="0 0 21 21" fill="none" xmlns="http://www.w3.org/2000/svg">
<path d="M6.41212 1.0824L6.4122 1.08266L8.15961 6.32373C8.15962 6.32375 8.15963 6.32376 8.15963 6.32378C8.17985 6.38466 8.17745 6.45078 8.15287 6.51003C8.12828 6.5693 8.08315 6.61772 8.02575 6.64639L8.02508 6.64673L5.39191 7.96506C4.95991 8.18135 4.77574 8.70014 4.97467 9.14041C6.35554 12.1966 8.80339 14.6445 11.8596 16.0253C12.2999 16.2243 12.8186 16.0401 13.0349 15.6081L14.3533 12.9749L14.3536 12.9743C14.3823 12.9169 14.4307 12.8717 14.49 12.8471C14.5491 12.8226 14.615 12.8202 14.6758 12.8402C14.6759 12.8403 14.6761 12.8403 14.6763 12.8404L19.9173 14.5878L19.9176 14.5879C19.9707 14.6056 20.0169 14.6395 20.0497 14.685C20.0824 14.7304 20.1 14.785 20.1 14.8409V14.8412V18.6667C20.1 19.0468 19.949 19.4114 19.6802 19.6802C19.4114 19.949 19.0468 20.1 18.6667 20.1H17.5C8.33239 20.1 0.9 12.6676 0.9 3.5V2.33333C0.9 1.95319 1.05101 1.58862 1.31981 1.31981C1.58862 1.05101 1.95319 0.9 2.33333 0.9H6.15952C6.2154 0.900086 6.26983 0.917719 6.31514 0.950413C6.36051 0.983147 6.39444 1.02932 6.41212 1.0824Z" stroke="white" stroke-width="1.8" stroke-linecap="round" stroke-linejoin="round"/>
</svg>
