<svg width="32" height="32" viewBox="0 0 32 32" fill="none" xmlns="http://www.w3.org/2000/svg">
<path d="M4 10.667L14.52 17.6803C14.9582 17.9727 15.4732 18.1287 16 18.1287C16.5268 18.1287 17.0418 17.9727 17.48 17.6803L28 10.667M6.66667 25.3337H25.3333C26.0406 25.3337 26.7189 25.0527 27.219 24.5526C27.719 24.0525 28 23.3742 28 22.667V9.33366C28 8.62641 27.719 7.94814 27.219 7.44804C26.7189 6.94794 26.0406 6.66699 25.3333 6.66699H6.66667C5.95942 6.66699 5.28115 6.94794 4.78105 7.44804C4.28095 7.94814 4 8.62641 4 9.33366V22.667C4 23.3742 4.28095 24.0525 4.78105 24.5526C5.28115 25.0527 5.95942 25.3337 6.66667 25.3337Z" stroke="#0658BE" stroke-width="2" stroke-linecap="round" stroke-linejoin="round"/>
</svg>
