<svg width="32" height="32" viewBox="0 0 32 32" fill="none" xmlns="http://www.w3.org/2000/svg">
<path d="M23.2093 22.2089L17.552 27.8663C17.3046 28.1139 17.0108 28.3104 16.6874 28.4444C16.364 28.5785 16.0174 28.6475 15.6673 28.6475C15.3173 28.6475 14.9706 28.5785 14.6473 28.4444C14.3239 28.3104 14.0301 28.1139 13.7827 27.8663L8.12401 22.2089C6.6323 20.7172 5.61645 18.8165 5.20492 16.7474C4.79339 14.6783 5.00466 12.5336 5.81201 10.5846C6.61936 8.63554 7.98653 6.96966 9.74065 5.79762C11.4948 4.62558 13.557 4 15.6667 4C17.7763 4 19.8386 4.62558 21.5927 5.79762C23.3468 6.96966 24.714 8.63554 25.5213 10.5846C26.3287 12.5336 26.54 14.6783 26.1284 16.7474C25.7169 18.8165 24.701 20.7172 23.2093 22.2089V22.2089Z" stroke="#0658BE" stroke-width="2" stroke-linecap="round" stroke-linejoin="round"/>
<path d="M18.8284 17.4954C19.5786 16.7453 20 15.7279 20 14.667C20 13.6061 19.5786 12.5887 18.8284 11.8386C18.0783 11.0884 17.0609 10.667 16 10.667C14.9391 10.667 13.9217 11.0884 13.1716 11.8386C12.4214 12.5887 12 13.6061 12 14.667C12 15.7279 12.4214 16.7453 13.1716 17.4954C13.9217 18.2456 14.9391 18.667 16 18.667C17.0609 18.667 18.0783 18.2456 18.8284 17.4954Z" stroke="#0658BE" stroke-width="2" stroke-linecap="round" stroke-linejoin="round"/>
</svg>
